<svg width="35" height="46" viewBox="0 0 35 46" fill="none" xmlns="http://www.w3.org/2000/svg">
<path fill-rule="evenodd" clip-rule="evenodd" d="M17.5999 0.599976C18.8703 0.599976 19.9815 1.45533 20.3066 2.68348L23.6084 15.157L32.9991 20.5747C33.8658 21.0747 34.3999 21.9993 34.3999 23C34.3999 24.0006 33.8658 24.9252 32.9991 25.4253L23.6084 30.843L20.3066 43.3165C19.9815 44.5446 18.8703 45.4 17.5999 45.4C16.3294 45.4 15.2182 44.5446 14.8931 43.3165L11.5913 30.843L2.20079 25.4253C1.33399 24.9252 0.799988 24.0006 0.799988 23C0.799988 21.9993 1.33399 21.0747 2.20079 20.5747L11.5913 15.157L14.8931 2.68348C15.2182 1.45533 16.3294 0.599976 17.5999 0.599976Z" fill="#FF7500"/>
</svg>
